<?xml version="1.0" encoding="utf-8"?>
<!-- Generator: Adobe Illustrator 27.0.1, SVG Export Plug-In . SVG Version: 6.00 Build 0)  -->
<svg version="1.1" id="Layer_1" xmlns="http://www.w3.org/2000/svg" xmlns:xlink="http://www.w3.org/1999/xlink" x="0px" y="0px"
	 viewBox="0 0 122.9 116.6" style="enable-background:new 0 0 122.9 116.6;" xml:space="preserve">
<style type="text/css">
	.st0{fill:#FFFFFF;stroke:#FFFFFF;stroke-width:3.8381;stroke-linecap:square;stroke-linejoin:round;stroke-miterlimit:10;}
</style>
<g>
	<path class="st0" d="M66.2,98.7h21c1.7-1.7,3.5-3.4,5.4-5.2c3.9-3.7,8.1-7.6,12.3-12.5c4.8-5.6,5.4-7.5,6.8-13c0.3-1,0.6-2.2,1-3.6
		l2.5-8.8l0-0.1c1.3-3.9,1.4-6.5,0.9-8c-0.2-0.5-0.4-0.8-0.7-0.9c-0.2-0.1-0.5-0.2-0.7-0.2c-0.7,0.1-1.4,0.5-2.1,1.2l-7.5,17.8
		c-0.1,0.2-0.2,0.3-0.3,0.5c-0.4,0.8-1,1.6-1.8,2.3L89.9,82.9c-0.7,0.8-2,0.9-2.8,0.2c-0.8-0.7-0.9-2-0.2-2.8l13.3-14.8
		c0.1-0.1,0.1-0.1,0.2-0.2c1.4-1.3,1.8-2.7,1.6-3.7c-0.1-0.3-0.2-0.6-0.4-0.8c-0.2-0.2-0.4-0.3-0.7-0.3l0,0c-1.2-0.1-2.9,0.7-5,3.3
		l0,0c-0.1,0.1-0.1,0.1-0.2,0.2l-5.1,4.5l0,0c-5.6,5.3-7.9,6.5-12.3,8.8c-0.9,0.5-1.9,1-3.1,1.7c-0.5,0.3-1,0.6-1.4,0.9
		c-0.5,0.4-1,0.8-1.4,1.2c-2.3,1.9-3.5,3.5-4.2,5.2c-0.7,1.8-1,4-1.3,7c-0.1,1.2-0.2,2.4-0.3,3.6C66.3,97.5,66.2,98.1,66.2,98.7
		L66.2,98.7z M61.4,2.4c5.2,0,9.5,4.2,9.5,9.5c0,5.2-4.2,9.5-9.5,9.5S52,17.1,52,11.8S56.2,2.4,61.4,2.4L61.4,2.4z M51.4,45.4
		l7.5,7.6l-5.5,5.5l4.4,4.6l1.5,1.5c2.6,3.4-1.3,7.5-4.7,4.7l-9.9-10.1c-1.5-2.1-1.9-4.3-0.4-6.9L51.4,45.4L51.4,45.4L51.4,45.4z
		 M71.5,45.4L64,53l5.5,5.5l-4.4,4.6l-1.5,1.5c-2.6,3.4,1.3,7.5,4.7,4.7l9.9-10.1c1.5-2.1,1.9-4.3,0.4-6.9L71.5,45.4L71.5,45.4
		L71.5,45.4z M84,42.9c-1.5,1.1-3.5,0.6-4.8-0.8l-7.6-7.9v7.2H51.3v-7.2l-7.5,7.9c-1.3,1.4-3.3,1.9-4.8,0.8
		c-1.5-1.1-2.1-3.5-0.8-4.8l9.9-9.6c1.6-1.6,4.7-5.3,6.8-5.3h13.3c2,0,5,3.7,6.6,5.3l9.9,9.6C86.1,39.3,85.5,41.7,84,42.9L84,42.9
		L84,42.9z M56.7,98.7h-21c-1.7-1.7-3.5-3.4-5.4-5.2c-3.9-3.7-8.1-7.6-12.3-12.5c-4.8-5.6-5.4-7.5-6.8-13c-0.3-1-0.6-2.2-1-3.6
		l-2.5-8.8l0-0.1c-1.3-3.9-1.4-6.5-0.9-8c0.2-0.5,0.4-0.8,0.7-0.9c0.2-0.1,0.5-0.2,0.7-0.2c0.7,0.1,1.4,0.5,2.1,1.2l7.5,17.8
		c0.1,0.2,0.2,0.3,0.3,0.5c0.4,0.8,1,1.6,1.8,2.3l13.2,14.8c0.7,0.8,2,0.9,2.8,0.2c0.8-0.7,0.9-2,0.2-2.8L22.6,65.5
		c-0.1-0.1-0.1-0.1-0.2-0.2c-1.4-1.3-1.8-2.7-1.6-3.7c0.1-0.3,0.2-0.6,0.4-0.8c0.2-0.2,0.4-0.3,0.7-0.3l0,0c1.2-0.1,2.9,0.7,5,3.3
		l0,0c0.1,0.1,0.1,0.1,0.2,0.2l5.1,4.5l0,0c5.6,5.3,7.9,6.5,12.3,8.8c0.9,0.5,1.9,1,3.1,1.7c0.5,0.3,1,0.6,1.4,0.9
		c0.5,0.4,1,0.8,1.4,1.2c2.3,1.9,3.5,3.5,4.2,5.2c0.7,1.8,1,4,1.3,7c0.1,1.2,0.2,2.4,0.3,3.6C56.6,97.5,56.6,98.1,56.7,98.7
		L56.7,98.7z M30.7,99.3c-0.3,0.3-0.5,0.8-0.5,1.3v11.6c0,1.1,0.9,2,2,2h26.5c1.1,0,2-0.9,2-2v-11.8c0-1.2-0.1-2.6-0.2-3.8
		c-0.1-1.3-0.2-2.5-0.3-3.8c-0.4-3.3-0.7-5.7-1.6-8c-0.9-2.4-2.5-4.4-5.3-6.8c-0.5-0.4-1-0.9-1.6-1.3c-0.6-0.4-1.2-0.9-1.9-1.3
		c-1.2-0.6-2.2-1.2-3.2-1.7c-4-2.1-6.2-3.3-11.4-8.2c0,0-0.1-0.1-0.1-0.1l-5-4.4c-3.1-3.6-6.1-4.8-8.3-4.5h0l0,0
		c-1.1,0.1-2.1,0.6-2.8,1.2l-5.1-12.1h0c-0.1-0.2-0.2-0.3-0.3-0.5c-1.4-1.7-3.2-2.7-4.9-2.8c-1.2-0.1-2.3,0.1-3.3,0.8
		c-0.9,0.6-1.7,1.5-2.2,2.8c-0.8,2.3-0.8,5.8,0.8,10.6l2.5,8.8c0.4,1.3,0.7,2.5,1,3.6C9,75.1,9.6,77.2,15,83.5
		c4.3,5,8.5,9,12.6,12.8C28.6,97.3,29.7,98.3,30.7,99.3L30.7,99.3z M34.5,102.6c0.3,0.1,0.5,0.1,0.8,0h21.4v7.7H34.2v-7.7H34.5
		L34.5,102.6z M92.1,99.3c0.3,0.3,0.5,0.8,0.5,1.3v11.6c0,1.1-0.9,2-2,2H64.2c-1.1,0-2-0.9-2-2v-11.8c0-0.1,0-0.1,0-0.2
		c0-1.3,0.1-2.5,0.2-3.6c0.1-1.3,0.2-2.5,0.3-3.8c0.4-3.3,0.7-5.7,1.6-8c0.9-2.4,2.5-4.4,5.3-6.8c0.5-0.4,1-0.9,1.6-1.3
		c0.6-0.4,1.2-0.9,1.9-1.3c1.2-0.6,2.2-1.2,3.2-1.7c4-2.1,6.2-3.3,11.4-8.2c0,0,0.1-0.1,0.1-0.1l5-4.4c3.1-3.6,6.1-4.8,8.3-4.5h0
		l0,0c1.1,0.1,2.1,0.6,2.8,1.2l5.1-12.1h0c0.1-0.2,0.2-0.3,0.3-0.5c1.4-1.7,3.2-2.7,4.9-2.8c1.2-0.1,2.3,0.1,3.3,0.8
		c0.9,0.6,1.7,1.5,2.2,2.8c0.8,2.3,0.8,5.8-0.8,10.6l-2.5,8.8c-0.4,1.3-0.7,2.5-1,3.6c-1.6,6.1-2.2,8.3-7.6,14.5
		c-4.3,5-8.5,9-12.6,12.8C94.3,97.3,93.2,98.3,92.1,99.3L92.1,99.3z M88.4,102.6c-0.3,0.1-0.5,0.1-0.8,0H66.2v7.7h22.5v-7.7H88.4
		L88.4,102.6z"/>
</g>
</svg>
