<?xml version="1.0" encoding="utf-8"?>
<!-- Generator: Adobe Illustrator 27.0.1, SVG Export Plug-In . SVG Version: 6.00 Build 0)  -->
<svg version="1.1" id="Layer_1" xmlns="http://www.w3.org/2000/svg" xmlns:xlink="http://www.w3.org/1999/xlink" x="0px" y="0px"
	 viewBox="0 0 122.9 121.6" style="enable-background:new 0 0 122.9 121.6;" xml:space="preserve">
<style type="text/css">
	.st0{fill-rule:evenodd;clip-rule:evenodd;fill:#FFFFFF;}
</style>
<path class="st0" d="M57.5,58.6c-0.3,0.5-0.6,1-0.9,1.5C49,74.7,52.6,92.4,65.1,103l-0.8,0.9c-11.3,9.8-28.5,8.6-38.3-2.7
	s-8.6-28.5,2.7-38.3C36.6,56,47.8,54.3,57.5,58.6L57.5,58.6z M15.5,36.9c0.1,0,0.2-0.1,0.4-0.1l31.1-9l-8.1-7.2l-20,5.8L15.5,36.9
	L15.5,36.9z M36,11.4h-0.1c-0.3-1.2-1.1-2.1-2.2-2.7c-1.1-0.6-2.3-0.8-3.5-0.4l0-0.1c1.2-0.3,2.2-1.1,2.7-2.2
	c0.6-1.1,0.8-2.3,0.4-3.5h0.1c0.3,1.2,1.1,2.2,2.2,2.7c1,0.6,2.3,0.8,3.5,0.4v0.1C37.9,6,37,6.8,36.4,7.9C35.8,9,35.7,10.2,36,11.4z
	 M16.2,16.9l-0.3,0.1c-0.6-2.2-2.1-4-4.2-5.1c-2-1.2-4.3-1.5-6.5-0.8l-0.1-0.3c2.2-0.6,4-2.1,5.1-4.1c1.2-2,1.5-4.3,0.8-6.5L11.4,0
	c0.6,2.2,2.1,4,4.2,5.1c2,1.2,4.3,1.5,6.5,0.8l0.1,0.3c-2.2,0.6-4,2.1-5.1,4.2C15.8,12.3,15.5,14.7,16.2,16.9L16.2,16.9z M5.9,29.9
	H5.8c-0.3-1.2-1.1-2.2-2.2-2.7c-1.1-0.6-2.4-0.8-3.5-0.4v-0.1c1.2-0.3,2.2-1.1,2.7-2.2c0.6-1,0.8-2.3,0.4-3.4l0.2,0
	c0.3,1.2,1.1,2.2,2.2,2.7c1.1,0.6,2.3,0.7,3.5,0.4v0.1c-1.2,0.3-2.2,1.1-2.7,2.2C5.7,27.5,5.5,28.8,5.9,29.9L5.9,29.9z M27.1,50.5
	L12.3,39.3c-0.6-0.4-0.8-1.2-0.6-1.9l4.1-12.9c0.2-0.6,0.7-1.1,1.3-1.2L38.8,17c0.6-0.2,1.2,0,1.6,0.4l10,8.9c0.6,0.5,0.7,1.3,0.5,2
	l-6.1,17.1c6.9-0.3,13.7,1.3,19.8,4.5c14.6-12.8,36.7-11.4,49.6,3.1s11.4,36.7-3.1,49.6c-9.9,8.7-23.9,11.2-36.2,6.3
	c-0.4,0.5-0.9,1.1-1.4,1.6c-14.9,15-39,15-54,0.2s-15-39-0.2-54C21.6,54.2,24.2,52.2,27.1,50.5z M73.1,56
	c4.8,4.6,8.3,10.4,10.1,16.8c2.7,9.1,1.8,18.8-2.6,27.2c13.2,4,27.2-3.5,31.2-16.7c4-13.2-3.5-27.2-16.7-31.2
	c-4.6-1.4-9.6-1.4-14.3-0.1C78,52.9,75.4,54.2,73.1,56L73.1,56z M71.2,94.7l-0.1,0.1c-8.1-7.3-10.6-19-6.1-28.9l0.9-1.4
	C73.7,72.5,75.8,84.5,71.2,94.7z"/>
</svg>
