<?xml version="1.0" encoding="UTF-8"?>
<svg id="_レイヤー_2" data-name="レイヤー 2" xmlns="http://www.w3.org/2000/svg" viewBox="0 0 100 100">
  <defs>
    <style>
      .cls-1 {
        fill: #303e4a;
      }
    </style>
  </defs>
  <g id="_レイヤー_1-2" data-name="レイヤー 1">
    <g>
      <path class="cls-1" d="M73.95,26.88c-2.57-2.57-6.2-3.37-9.73-3.53-3.41-.16-4.44-.19-13.07-.19s-9.66,.03-13.07,.19c-3.53,.16-7.14,.95-9.73,3.53-2.55,2.55-3.38,6.23-3.53,9.73-.16,3.41-.19,4.44-.19,13.07s.03,9.66,.19,13.07c.16,3.52,.95,7.15,3.53,9.73,2.53,2.53,6.25,3.38,9.73,3.53,3.41,.16,4.44,.19,13.07,.19s9.66-.03,13.07-.19c3.54-.16,7.13-.94,9.73-3.53s3.38-6.22,3.53-9.73c.16-3.41,.19-4.44,.19-13.07s-.03-9.66-.19-13.07c-.16-3.54-.94-7.13-3.53-9.73Zm-22.8,39.42c-9.18,0-16.61-7.44-16.61-16.61s7.44-16.61,16.61-16.61,16.61,7.44,16.61,16.61-7.44,16.61-16.61,16.61Zm17.27-30.01c-2.14,0-3.88-1.74-3.88-3.88s1.74-3.88,3.88-3.88,3.88,1.74,3.88,3.88-1.74,3.88-3.88,3.88Z"/>
      <circle class="cls-1" cx="51.14" cy="49.69" r="10.79" transform="translate(-20.15 50.72) rotate(-45)"/>
      <path class="cls-1" d="M50,0C22.39,0,0,22.39,0,50s22.39,50,50,50,50-22.39,50-50S77.61,0,50,0Zm33.31,63.03c-.23,5-1.6,9.95-5.24,13.58s-8.59,5.01-13.58,5.24c-3.45,.16-4.55,.19-13.34,.19s-9.89-.04-13.34-.19c-4.99-.23-9.96-1.61-13.58-5.24-3.61-3.61-5.01-8.59-5.24-13.58-.16-3.45-.19-4.55-.19-13.34s.04-9.89,.19-13.34c.23-5,1.61-9.95,5.24-13.58s8.58-5.01,13.58-5.24c3.45-.16,4.55-.19,13.34-.19s9.89,.04,13.34,.19c4.99,.23,9.96,1.62,13.58,5.24,3.61,3.61,5.01,8.58,5.24,13.58,.16,3.45,.19,4.55,.19,13.34s-.04,9.89-.19,13.34Z"/>
    </g>
  </g>
</svg>